<svg width="885" height="885" viewBox="0 0 885 885" fill="none" xmlns="http://www.w3.org/2000/svg">
<path d="M442.5 2.5C451.592 2.5 458.963 9.87124 458.963 18.9629V95.999C637.18 104.368 780.629 247.821 789 426.038H866.037C875.129 426.038 882.5 433.408 882.5 442.5C882.5 451.592 875.129 458.963 866.037 458.963H788.998C780.629 637.18 637.178 780.629 458.961 789V866.037C458.961 875.129 451.59 882.5 442.498 882.5C433.406 882.5 426.036 875.129 426.036 866.037V789.01C350.066 785.391 277.024 756.837 218.789 707.657C211.844 701.792 210.965 691.406 216.833 684.458C222.697 677.511 233.084 676.633 240.031 682.502L241.275 683.547C293.368 727.076 358.376 752.495 426.038 756.056V679.868C426.038 670.777 433.408 663.405 442.5 663.405C451.592 663.405 458.963 670.777 458.963 679.868V756.04C619.017 747.731 747.733 619.014 756.042 458.963H679.868C670.777 458.963 663.405 451.592 663.405 442.5C663.405 433.408 670.777 426.038 679.868 426.038H756.042C747.732 265.985 619.014 137.269 458.963 128.96V205.134C458.963 214.225 451.592 221.597 442.5 221.597C433.408 221.597 426.038 214.225 426.038 205.134V128.961C265.985 137.27 137.267 265.988 128.958 426.039H205.133C214.224 426.039 221.595 433.41 221.595 442.502C221.595 451.593 214.224 458.964 205.133 458.964H128.944C132.533 527.164 158.331 592.666 202.496 644.964C208.362 651.909 207.488 662.296 200.54 668.162C193.596 674.026 183.207 673.153 177.341 666.205C128.162 607.972 99.6089 534.93 95.9902 458.963H18.9629C9.87124 458.963 2.5 451.592 2.5 442.5C2.5 433.408 9.87124 426.038 18.9629 426.038H96C104.369 247.82 247.82 104.368 426.038 95.999V18.9629C426.038 9.87124 433.408 2.5 442.5 2.5Z" fill="#121212" stroke="white" stroke-width="5"/>
<path d="M425.558 366.324C461.301 358.23 499.431 377.741 513.941 411.528H513.94C514.269 412.292 514.603 413.047 515.06 414.088L515.088 414.151L515.112 414.217C532.999 462.063 504.714 512.156 454.407 520.411C404.298 528.634 363.847 489.068 363.503 444.96C363.2 406.084 387.891 374.855 425.558 366.324ZM496.758 434.972C490.809 399.17 454.252 378.369 421.197 391.761C400.758 400.042 384.84 421.475 386.83 447.704C389.678 485.245 430.458 509.416 464.632 493.536C487.223 483.038 499.382 461.332 496.758 434.972Z" fill="#121212" stroke="white" stroke-width="5"/>
<path d="M314.439 338.738C316.937 338.239 319.431 338.555 322.007 339.396C323.003 339.722 324.476 340.271 325.361 341.583C326.363 343.069 326.145 344.74 325.737 346.08C324.394 350.489 323.238 354.972 322.114 359.501C321.518 361.903 320.157 363.552 318.695 364.892C294.623 386.947 275.574 412.871 259.824 441.41C259.333 442.301 259.21 442.895 259.219 443.355C259.227 443.827 259.378 444.423 259.874 445.311C264.03 452.739 268.26 460.071 272.98 467.398L274.188 469.228C286.714 488.076 300.798 505.276 317.23 520.533C318.248 521.478 319.024 521.894 319.722 522.069C320.422 522.245 321.307 522.244 322.657 521.897C337.943 517.971 353.366 514.319 368.629 510.509C370.992 509.919 373.103 510.129 375.299 511.441C387.793 518.906 401.159 524.214 415.392 527.361C415.529 527.392 415.676 527.42 415.863 527.456C416.039 527.49 416.254 527.531 416.471 527.579C416.891 527.672 417.468 527.819 418.039 528.101C418.638 528.395 419.294 528.867 419.782 529.63C420.271 530.394 420.465 531.252 420.47 532.11C420.52 540.609 420.492 549.116 420.492 558V560.612L417.882 560.498C411.381 560.213 405.572 558.967 399.932 557.293C398.976 557.009 398.131 556.524 397.477 555.798C396.826 555.076 396.493 554.258 396.333 553.509C396.045 552.162 396.28 550.708 396.363 550.031C396.557 548.461 396.308 547.823 396.082 547.505C395.827 547.147 395.209 546.642 393.513 546.163C385.714 543.96 378.396 540.534 371.413 536.779C369.48 535.74 367.832 535.525 365.64 536.074C349.978 540 334.204 543.715 318.562 547.558C317.003 547.941 315.395 548.137 313.742 547.841C312.055 547.538 310.53 546.76 309.075 545.522C276.887 518.142 252.931 484.597 233.625 447.622C232.875 446.185 232.464 444.72 232.502 443.175C232.539 441.645 233.011 440.235 233.707 438.896C252.623 402.527 276.297 369.695 307.493 342.418C309.683 340.504 311.941 339.237 314.439 338.738Z" fill="#121212" stroke="white" stroke-width="5"/>
<path d="M465.156 326.501C466.554 325.36 468.336 325.428 469.579 325.59C474.007 326.167 478.332 327.156 482.517 328.079C484.017 328.41 485.568 329.076 486.62 330.42C487.731 331.839 487.946 333.57 487.63 335.279C487.284 337.152 487.634 337.947 487.992 338.388C488.46 338.964 489.438 339.56 491.443 340.12C499.028 342.239 506.037 345.773 512.719 349.361C514.412 350.271 515.869 350.408 517.794 349.93C533.552 346.012 549.246 342.299 564.938 338.308C566.734 337.851 568.452 337.737 570.154 338.148C571.64 338.508 572.944 339.226 574.163 340.184L574.681 340.609L576.724 342.377C597.727 360.742 615.309 381.993 630.452 405.3C637.189 415.668 643.132 426.467 648.995 437.209C649.951 438.959 650.507 440.723 650.5 442.6C650.493 444.468 649.928 446.219 649.018 447.947C630.292 483.479 607.256 515.811 576.854 542.657C574.839 544.436 572.639 546.088 570.086 546.924C567.421 547.796 564.583 547.715 561.459 546.427V546.428C560.997 546.237 560.458 546.01 559.97 545.737C559.476 545.462 558.88 545.057 558.397 544.433C557.276 542.983 557.426 541.296 557.852 539.871C559.238 535.223 560.418 530.508 561.634 525.727C562.134 523.758 563.211 522.362 564.468 521.227C588.539 499.478 607.242 473.532 623.052 445.207C623.695 444.054 623.885 443.206 623.865 442.479C623.845 441.731 623.596 440.853 622.935 439.653C607.635 411.882 589.202 386.62 565.947 365.059C565.1 364.273 564.464 363.949 563.912 363.815C563.351 363.68 562.622 363.678 561.482 363.966C546.146 367.836 530.68 371.508 515.368 375.31C512.727 375.965 510.409 375.654 508.039 374.243C495.788 366.949 482.725 361.693 468.801 358.715C467.362 358.407 465.828 357.838 464.757 356.541C463.647 355.197 463.418 353.55 463.522 351.971C463.681 349.568 463.55 347.274 463.548 344.218V344.215C463.548 339.459 463.644 335.235 463.515 330.967C463.471 329.544 463.679 327.708 465.156 326.501Z" fill="#121212" stroke="white" stroke-width="5"/>
<path d="M378.306 299.605C379.144 299.451 380.466 299.348 381.638 300.194C382.782 301.021 383.126 302.286 383.27 303.114C383.424 304.003 383.456 305.084 383.461 306.233C383.48 310.315 383.377 314.145 383.494 318.081C383.535 319.457 383.378 321.026 382.586 322.403C381.725 323.901 380.307 324.844 378.519 325.225C373.686 326.254 370.544 328.378 368.328 331.275C366.052 334.252 364.617 338.222 363.581 343.162C360.539 357.665 356.068 372.022 352.398 386.15C351.446 389.817 349.614 392.637 346.872 395.124C332.416 408.239 320.91 423.823 310.738 440.634C310.277 441.397 310.218 441.858 310.24 442.185C310.267 442.571 310.432 443.108 310.957 443.989C320.331 459.72 331.01 474.327 344.124 486.938C347.313 490.005 348.251 493.892 349.185 496.852C349.593 498.146 349.651 499.696 348.642 501.016C347.872 502.022 346.767 502.485 345.888 502.729L345.526 502.82C340.742 503.938 336.047 505.092 331.233 506.229C330.871 506.315 329.956 506.559 329.028 506.486C327.857 506.395 326.617 505.812 325.867 504.438C323.895 500.824 321.236 497.702 318.301 494.526C315.424 491.414 312.189 488.16 309.453 484.54C300.244 472.356 291.854 459.666 284.583 446.18C283.81 444.746 283.428 443.297 283.511 441.781C283.592 440.303 284.105 438.973 284.759 437.755C296.073 416.679 309.893 397.427 327.009 380.617C328.757 378.9 329.844 377.108 330.454 374.788C335.082 357.184 339.827 339.603 344.591 321.751C344.955 318.811 345.966 316.409 347.625 314.444C349.292 312.47 351.481 311.094 353.901 310.006C360.867 306.874 368.003 303.311 375.376 300.516C376.417 300.121 377.424 299.769 378.306 299.605Z" fill="#121212" stroke="white" stroke-width="5"/>
<path d="M552.482 379.731C553.014 379.603 553.947 379.402 554.928 379.557C556.1 379.741 557.256 380.423 557.904 381.778C559.278 384.649 561.394 387.011 563.883 389.535C566.269 391.956 569.088 394.604 571.327 397.789C582.07 410.593 591.069 424.211 599.023 438.498C599.911 440.091 600.479 441.729 600.499 443.5C600.519 445.277 599.984 446.937 599.084 448.571C587.486 469.636 573.299 488.808 555.826 505.567C554.624 506.721 553.876 507.829 553.45 509.218L553.369 509.499C548.297 528.362 543.127 547.143 538.127 565.999C537.669 567.725 536.999 569.306 535.915 570.688C534.822 572.083 533.414 573.142 531.672 573.976C523.606 577.835 515.433 581.701 506.903 584.863C506.091 585.165 505.241 585.408 504.408 585.479C503.567 585.55 502.556 585.46 501.621 584.885C499.695 583.699 499.476 581.418 499.506 579.826C499.587 575.421 499.598 571.02 499.502 566.631C499.472 565.254 499.718 563.824 500.566 562.585C501.388 561.385 502.577 560.651 503.897 560.229C503.933 560.211 503.971 560.189 504.013 560.17C504.155 560.105 504.375 560.016 504.653 559.961L505.109 559.865C509.775 558.843 512.787 556.733 514.921 553.904C517.192 550.893 518.598 546.899 519.682 542.027C522.964 527.267 527.475 512.645 531.305 498.207C531.995 495.604 533.219 493.447 535.294 491.572C550.138 478.158 562.357 462.604 572.849 445.581C573.459 444.591 573.621 444.013 573.637 443.603C573.651 443.228 573.555 442.678 572.972 441.729C563.377 426.107 552.651 411.501 539.354 398.963C536.108 395.902 535.174 392.012 534.241 389.067C533.89 387.96 533.756 386.515 534.631 385.215C535.438 384.015 536.72 383.538 537.679 383.313C542.618 382.156 547.515 380.932 552.482 379.731Z" fill="#121212" stroke="white" stroke-width="5"/>
<path d="M440.959 231.501C442.657 231.46 444.036 232.316 445.144 233.285C457.966 244.503 470.865 255.606 483.743 266.792C485.513 268.329 486.579 270.836 487.092 273.079C487.607 275.333 487.721 278.004 486.923 280.099C486.427 281.398 485.504 282.384 484.154 282.763C483.096 283.06 482.032 282.876 481.567 282.805C475.758 281.918 469.949 281.026 464.142 280.127C462.585 279.886 461.374 279.197 460.417 278.481C459.572 277.849 458.641 276.949 458.111 276.488C452.496 271.608 446.885 266.722 441.085 261.674C436.36 265.853 431.622 270.473 426.383 274.041C423.303 276.139 421.592 278.448 420.624 281.031C419.628 283.688 419.352 286.803 419.442 290.617C419.928 311.031 419.549 331.572 419.68 351.885C419.691 353.584 419.438 355.348 418.305 356.774C417.159 358.216 415.493 358.839 413.824 359.171C401.081 361.707 389.147 366.577 377.678 372.881C377.486 372.986 377.307 373.111 376.921 373.362C376.599 373.572 376.126 373.872 375.588 374.103C375.036 374.339 374.284 374.559 373.406 374.485C372.488 374.408 371.663 374.027 370.967 373.432C370.297 372.859 369.839 372.138 369.63 371.317C369.432 370.543 369.493 369.831 369.594 369.299C369.692 368.776 369.857 368.292 369.974 367.959C370.112 367.564 370.185 367.368 370.238 367.172C371.725 361.677 373.272 356.344 374.612 350.913C374.93 349.625 375.447 348.399 376.307 347.345C377.18 346.274 378.3 345.51 379.625 344.996C383.757 343.394 387.865 341.767 392.272 340.042L392.52 339.945L392.782 339.902C394.347 339.648 394.816 339.189 395.017 338.895C395.295 338.487 395.533 337.703 395.52 336.033C395.351 315.542 395.494 294.884 395.379 274.438C395.369 272.714 395.629 271.11 396.31 269.606C396.991 268.1 398.024 266.85 399.335 265.733C411.931 255.003 424.458 244.186 436.948 233.324C437.975 232.431 439.299 231.542 440.959 231.501Z" fill="#121212" stroke="white" stroke-width="5"/>
<path d="M509.538 510.507C510.324 510.552 511.044 510.826 511.672 511.269L511.936 511.469L512.184 511.686C512.743 512.209 513.152 512.854 513.356 513.603C513.578 514.415 513.505 515.158 513.392 515.704C513.281 516.235 513.098 516.725 512.98 517.039C512.837 517.421 512.771 517.592 512.731 517.743C511.241 523.41 509.704 528.908 508.271 534.524C507.972 535.699 507.499 536.866 506.689 537.889C505.862 538.935 504.78 539.705 503.459 540.214C501.449 540.989 499.447 541.794 497.426 542.606C495.411 543.417 493.376 544.235 491.328 545.026C489.801 545.616 488.481 546.036 487.831 546.271C487.623 546.346 487.473 546.406 487.367 546.451C487.358 546.531 487.349 546.633 487.342 546.761C487.297 547.534 487.325 548.58 487.323 550.428C487.301 570.75 487.258 591.06 487.355 611.369C487.364 613.06 487.133 614.684 486.468 616.216C485.794 617.765 484.742 619.065 483.332 620.199C479.228 623.499 475.36 626.983 471.058 630.662C462.603 637.957 454.335 644.976 446.233 652.199C444.871 653.414 443.252 654.492 441.27 654.5C439.286 654.508 437.641 653.442 436.23 652.193C423.654 641.061 410.905 630.145 398.19 619.11C396.445 617.596 395.407 614.953 394.909 612.704C394.411 610.453 394.245 607.652 395.125 605.591C395.393 604.963 395.785 604.363 396.355 603.887C396.939 603.4 397.581 603.149 398.182 603.041C399.178 602.862 400.264 603.092 400.54 603.134C404.867 603.784 409.149 604.455 413.439 605.101L417.735 605.736L418.169 605.812C420.294 606.253 421.757 607.544 422.747 608.4C428.153 613.076 433.526 617.749 438.93 622.411C439.693 623.07 440.458 623.692 441.291 624.365C448.522 618.123 455.592 612.022 462.66 605.918C462.834 605.768 462.92 605.627 462.969 605.253C462.998 605.027 463.007 604.752 463.001 604.371C462.996 604.08 462.972 603.488 462.973 603.068C462.982 579.96 463.044 556.873 462.895 533.784C462.882 531.921 463.162 530.048 464.363 528.544C465.573 527.031 467.336 526.365 469.14 525.997L470.341 525.745C482.731 523.067 494.382 518.263 505.563 512.076C505.712 511.994 505.863 511.888 506.211 511.652C506.497 511.459 506.938 511.163 507.441 510.932C507.96 510.694 508.682 510.458 509.538 510.507Z" fill="#121212" stroke="white" stroke-width="5"/>
<path d="M362.91 549.57C363.604 549.446 364.33 549.478 365.034 549.734C365.829 550.023 366.408 550.528 366.809 551.034C367.546 551.967 367.836 553.1 367.973 553.765C368.245 555.086 368.984 555.75 371.007 556.687C388.338 564.707 406.485 569.574 425.468 571.576C431.643 572.227 437.719 572.074 444.175 572.205C444.327 572.208 444.488 572.206 444.708 572.203C444.911 572.201 445.166 572.198 445.427 572.205C445.931 572.219 446.653 572.272 447.392 572.545C448.194 572.842 448.969 573.381 449.534 574.257C450.068 575.084 450.307 576.045 450.384 577.029L450.391 577.118L450.392 577.207C450.422 581.885 450.304 585.949 450.488 590.097C450.562 591.752 450.333 593.622 448.909 594.957C447.574 596.209 445.76 596.419 444.305 596.452C415.007 597.125 387.269 590.641 360.783 578.466V578.467C360.302 578.246 359.749 577.92 359.515 577.792C359.186 577.613 359.047 577.562 358.983 577.547C353.51 576.227 350.049 573.249 347.768 569.399C345.575 565.7 344.502 561.235 343.561 557.027L343.084 554.9L345.126 554.139C350.919 551.978 357.159 550.967 362.615 549.633L362.91 549.57Z" fill="#121212" stroke="white" stroke-width="5"/>
<path d="M439.355 289.521C470.965 289.04 500.55 296.587 528.809 310.1C533.029 312.118 535.156 315.102 536.469 318.248C537.1 319.761 537.547 321.321 537.947 322.738C538.309 324.018 538.632 325.18 539.031 326.285L539.207 326.756L539.278 326.951C539.613 327.945 539.645 329.186 538.825 330.277C538.126 331.209 537.108 331.574 536.575 331.738C535.981 331.921 535.301 332.042 534.868 332.126C534.341 332.228 534.043 332.299 533.852 332.371L533.691 332.432L533.525 332.47C529.383 333.426 525.584 334.273 521.804 335.228C520.665 335.515 519.121 335.729 517.685 335.038C516.078 334.265 515.343 332.75 515.056 331.239C514.865 330.24 514.26 329.567 512.59 328.817C494.877 320.866 476.413 315.825 457.04 313.978C451.086 313.41 445.119 313.319 439.087 313.413C437.61 313.436 435.73 313.301 434.306 312.104C432.731 310.782 432.428 308.824 432.525 307.009C432.723 303.326 432.744 299.632 432.521 295.984C432.394 293.893 432.844 291.842 434.675 290.6C436.154 289.596 438.063 289.541 439.355 289.521Z" fill="#121212" stroke="white" stroke-width="5"/>
<path d="M439.843 400.14C445.004 398.752 449.63 399.926 453.677 400.94L455.376 401.357L455.493 401.385L455.608 401.424C486.823 412.044 496.825 449.088 474.261 472.698C461.867 485.667 445.984 489.654 428.681 483.988C420.182 481.205 413.393 476.752 408.392 470.712C403.395 464.677 400.287 457.185 398.946 448.479C398.92 448.305 398.873 448.125 398.783 447.752C398.705 447.428 398.596 446.967 398.54 446.459C398.416 445.34 398.549 444.023 399.413 442.662L400.77 440.525L402.89 441.908C409.973 446.528 416.767 448.857 423.012 448.527C429.165 448.203 435.153 445.279 440.691 438.634C445.437 432.939 447.156 427.237 446.669 421.628C446.176 415.944 443.389 410.055 438.556 404.136L436.112 401.144L439.843 400.14Z" fill="#121212" stroke="white" stroke-width="5"/>
</svg>
